<svg width="680" height="95" viewBox="0 0 680 95" fill="none" xmlns="http://www.w3.org/2000/svg">
<g clip-path="url(#clip0)">
<path d="M266.324 48.0487C279.628 41.1072 295.015 25.6044 307.626 23.869C311.906 26.2986 306.469 41.3386 304.733 45.1564C299.296 57.9983 290.041 70.6087 278.818 80.0955C273.149 84.7232 269.332 87.7312 263.431 85.533C262.621 85.3017 261.696 86.2272 262.274 86.9213C275.579 93.8629 299.643 60.1964 306.237 45.3878C308.667 39.8346 311.212 30.9263 310.749 26.9927C309.824 17.3903 298.023 25.373 290.619 30.3478C282.405 35.901 274.769 42.1484 265.977 46.7761C265.282 47.3546 265.398 48.2801 266.324 48.0487ZM313.688 48.3958C309.754 48.8586 301.656 54.9903 302.928 59.1552C303.738 61.469 306.631 61.7004 308.597 62.7417C304.895 67.485 299.92 73.8481 299.458 77.4346C299.458 77.7817 299.458 78.013 299.805 78.1287C304.085 79.2857 313.225 67.3693 311.952 64.13C311.721 63.3201 311.258 62.7417 310.68 62.2789C315.655 55.2216 321.439 46.6604 326.761 37.9835C326.298 38.7933 325.951 39.7189 325.604 40.5287C321.786 49.7841 318.2 59.3866 316.812 68.5263C316.812 69.1047 316.812 69.2204 317.39 69.3361C324.794 67.7164 328.844 53.7177 336.711 50.0155C338.677 56.2629 328.496 75.005 340.297 72.2284C341.57 71.8813 341.454 70.7244 340.413 70.7244C339.603 70.8401 338.677 71.3029 337.868 71.3029C333.818 71.1872 338.562 54.2961 338.909 51.7509C339.024 50.8253 338.33 47.7016 337.058 48.2801C330.695 51.4038 320.629 67.2537 318.431 67.6007C319.935 58.6924 323.637 49.437 327.34 40.413C328.612 37.2893 330 33.4715 331.389 29.538C335.207 22.4807 338.33 15.8863 339.603 10.5644C339.603 10.4487 339.719 10.2173 339.834 10.1017C340.413 9.06042 339.719 8.48196 338.909 9.17611C338.909 9.2918 338.793 9.2918 338.793 9.40749L338.215 9.98595C338.215 10.333 337.983 10.6801 337.868 11.0272C335.091 16.8118 332.43 23.4063 329.885 29.7693C324.447 40.1816 317.506 51.0567 312.3 58.114C311.721 59.0395 310.68 60.0807 309.754 61.469C308.019 60.4278 305.821 59.8493 304.548 58.3453C305.358 54.2961 310.448 50.2469 313.572 49.8998C314.729 49.5527 314.729 48.3958 313.688 48.3958ZM310.448 64.8241C311.143 67.6007 304.548 75.5835 301.077 76.7404C301.656 74.3109 304.085 71.1872 305.936 68.8733C305.705 69.1047 305.589 69.3361 305.705 69.2204L309.754 63.6672C310.101 64.0143 310.333 64.3613 310.448 64.8241ZM345.353 54.9903C344.081 60.3121 343.271 62.5103 343.155 67.7164C343.155 68.1792 343.618 68.2949 343.965 68.1792C349.75 64.9398 352.758 55.9158 358.542 54.0647C359.93 55.8001 357.385 59.0395 360.278 59.8493C362.36 60.3121 364.442 56.4943 366.294 55.9158C368.723 58.2297 365.368 70.3773 374.276 63.0887C375.202 62.3946 374.739 61.469 373.698 61.9318C372.425 62.973 370.921 63.8986 369.417 63.3201C368.029 60.5435 369.417 56.61 367.103 54.2961H366.641C364.327 54.9903 363.054 57.1884 360.856 58.3453C360.162 57.9983 361.897 46.7761 354.146 55.6844C347.551 62.8573 346.163 64.5927 344.659 66.3281C344.659 61.8161 345.7 59.8493 346.742 55.2216C346.973 54.1804 345.932 53.8333 345.353 54.9903ZM390.865 21.7866C385.891 31.042 380.453 46.1977 377.329 55.9158C375.594 61.122 372.702 67.3693 374.206 72.2284C374.553 72.4598 374.784 72.5755 375.131 72.4598C379.875 70.6087 382.767 67.2537 385.428 63.2044C387.626 59.965 389.709 56.7257 391.791 53.4863C391.56 54.0647 391.328 54.7589 391.213 55.3373C385.312 72.3441 391.328 79.4013 404.401 61.2377C405.211 60.1964 404.054 59.618 403.36 60.5435C391.213 76.7404 387.163 71.5343 392.601 55.5687L395.146 47.933C398.27 42.2641 400.584 36.5952 401.741 30.8106L401.625 29.7693C401.741 29.4223 401.625 29.0752 401.509 28.9595C401.162 28.4967 400.931 28.6124 400.699 28.9595L400.121 29.538C397.691 37.405 395.609 42.8426 393.179 49.5527C390.75 54.0647 387.857 58.461 384.155 62.7417C381.841 65.4026 379.181 69.4518 375.594 70.8401C374.553 66.6752 377.329 60.5435 378.718 56.1472C381.841 46.5447 387.395 31.389 392.138 22.2493C392.369 21.3238 391.56 20.9767 390.865 21.7866ZM404.321 56.0315C403.048 61.2377 401.892 66.4438 400.735 71.65C400.85 72.2284 400.85 72.2284 401.429 72.4598C401.66 72.3441 401.776 72.3441 401.892 72.3441C402.354 72.2284 402.47 72.1127 402.701 71.7657C405.247 67.6007 410.106 54.6432 415.775 58.3453C416.7 58.114 417.741 55.9158 416.816 55.8001C409.759 54.2961 406.056 63.7829 402.817 70.0303L405.709 56.2629C405.941 55.2216 404.9 54.8746 404.321 56.0315Z" fill="#ABAC9E"/>
</g>
<defs>
<clipPath id="clip0">
<rect width="680" height="94.2933" fill="white"/>
</clipPath>
</defs>
</svg>
