<svg width="375" height="52" viewBox="0 0 375 52" fill="none" xmlns="http://www.w3.org/2000/svg">
<g clip-path="url(#clip0)">
<path d="M13.328 26.027C20.688 22.187 29.2 13.611 36.176 12.6509C38.544 13.9949 35.536 22.3149 34.576 24.427C31.568 31.531 26.448 38.507 20.24 43.755C17.104 46.315 14.992 47.979 11.728 46.763C11.28 46.635 10.768 47.147 11.088 47.531C18.448 51.371 31.76 32.747 35.408 24.555C36.752 21.483 38.16 16.555 37.904 14.3789C37.392 9.06695 30.864 13.4829 26.768 16.235C22.224 19.3069 18 22.7629 13.136 25.323C12.752 25.643 12.816 26.1549 13.328 26.027ZM39.5295 26.219C37.3535 26.475 32.8735 29.867 33.5775 32.1709C34.0255 33.451 35.6255 33.579 36.7135 34.155C34.6655 36.779 31.9135 40.299 31.6575 42.283C31.6575 42.475 31.6575 42.603 31.8495 42.667C34.2175 43.307 39.2735 36.715 38.5695 34.923C38.4415 34.475 38.1855 34.155 37.8655 33.899C40.6175 29.9949 43.8175 25.2589 46.7615 20.459C46.5055 20.9069 46.3135 21.4189 46.1215 21.8669C44.0095 26.9869 42.0255 32.299 41.2575 37.355C41.2575 37.675 41.2575 37.739 41.5775 37.803C45.6735 36.9069 47.9135 29.163 52.2655 27.115C53.3535 30.5709 47.7215 40.939 54.2495 39.403C54.9535 39.211 54.8895 38.571 54.3135 38.571C53.8655 38.635 53.3535 38.891 52.9055 38.891C50.6655 38.827 53.2895 29.483 53.4815 28.0749C53.5455 27.563 53.1615 25.8349 52.4575 26.1549C48.9375 27.8829 43.3695 36.651 42.1535 36.843C42.9855 31.9149 45.0335 26.795 47.0815 21.8029C47.7855 20.075 48.5535 17.9629 49.3215 15.7869C51.4335 11.8829 53.1615 8.23495 53.8655 5.29095C53.8655 5.22695 53.9295 5.09895 53.9935 5.03495C54.3135 4.45895 53.9295 4.13895 53.4815 4.52295C53.4815 4.58695 53.4175 4.58695 53.4175 4.65095L53.0975 4.97095C53.0975 5.16295 52.9695 5.35495 52.9055 5.54695C51.3695 8.74695 49.8975 12.395 48.4895 15.915C45.4815 21.6749 41.6415 27.691 38.7615 31.5949C38.4415 32.107 37.8655 32.683 37.3535 33.451C36.3935 32.875 35.1775 32.555 34.4735 31.7229C34.9215 29.483 37.7375 27.243 39.4655 27.0509C40.1055 26.8589 40.1055 26.219 39.5295 26.219ZM37.7375 35.3069C38.1215 36.843 34.4735 41.259 32.5535 41.899C32.8735 40.555 34.2175 38.827 35.2415 37.547C35.1135 37.675 35.0495 37.803 35.1135 37.739L37.3535 34.667C37.5455 34.8589 37.6735 35.051 37.7375 35.3069ZM57.0465 29.867C56.3425 32.8109 55.8945 34.027 55.8305 36.9069C55.8305 37.163 56.0865 37.227 56.2785 37.163C59.4785 35.371 61.1425 30.379 64.3425 29.3549C65.1105 30.315 63.7025 32.107 65.3025 32.555C66.4545 32.8109 67.6065 30.6989 68.6305 30.379C69.9745 31.659 68.1185 38.379 73.0465 34.347C73.5585 33.9629 73.3025 33.451 72.7265 33.707C72.0225 34.2829 71.1905 34.795 70.3585 34.475C69.5905 32.9389 70.3585 30.763 69.0785 29.483H68.8225C67.5425 29.867 66.8385 31.083 65.6225 31.7229C65.2385 31.531 66.1985 25.323 61.9105 30.2509C58.2625 34.219 57.4945 35.179 56.6625 36.139C56.6625 33.643 57.2385 32.555 57.8145 29.9949C57.9425 29.419 57.3665 29.2269 57.0465 29.867ZM82.2235 11.499C79.4715 16.6189 76.4635 25.003 74.7355 30.379C73.7755 33.259 72.1755 36.715 73.0075 39.403C73.1995 39.531 73.3275 39.595 73.5195 39.531C76.1435 38.507 77.7435 36.651 79.2155 34.4109C80.4315 32.6189 81.5835 30.827 82.7355 29.035C82.6075 29.3549 82.4795 29.739 82.4155 30.059C79.1515 39.467 82.4795 43.371 89.7115 33.323C90.1595 32.747 89.5195 32.427 89.1355 32.9389C82.4155 41.899 80.1755 39.019 83.1835 30.187L84.5915 25.9629C86.3195 22.827 87.5995 19.6909 88.2395 16.4909L88.1755 15.915C88.2395 15.7229 88.1755 15.5309 88.1115 15.4669C87.9195 15.2109 87.7915 15.2749 87.6635 15.4669L87.3435 15.7869C85.9995 20.139 84.8475 23.1469 83.5035 26.8589C82.1595 29.3549 80.5595 31.787 78.5115 34.155C77.2315 35.627 75.7595 37.867 73.7755 38.635C73.1995 36.331 74.7355 32.9389 75.5035 30.507C77.2315 25.195 80.3035 16.811 82.9275 11.7549C83.0555 11.243 82.6075 11.0509 82.2235 11.499ZM89.667 30.4429C88.963 33.323 88.323 36.203 87.683 39.083C87.747 39.403 87.747 39.403 88.067 39.531C88.195 39.467 88.259 39.467 88.323 39.467C88.579 39.403 88.643 39.339 88.771 39.147C90.179 36.843 92.867 29.6749 96.003 31.7229C96.515 31.5949 97.091 30.379 96.579 30.315C92.675 29.483 90.627 34.7309 88.835 38.187L90.435 30.5709C90.563 29.9949 89.987 29.8029 89.667 30.4429Z" fill="#ABAC9E"/>
</g>
<defs>
<clipPath id="clip0">
<rect width="375" height="52" fill="white"/>
</clipPath>
</defs>
</svg>
